<?xml version="1.0" encoding="utf-8"?>
<!-- Generator: Adobe Illustrator 21.0.2, SVG Export Plug-In . SVG Version: 6.00 Build 0)  -->
<svg version="1.1" id="Layer_1" xmlns="http://www.w3.org/2000/svg" xmlns:xlink="http://www.w3.org/1999/xlink" x="0px" y="0px"
	 viewBox="0 0 30 30" style="enable-background:new 0 0 30 30;" xml:space="preserve">
<g>
	<path d="M15,2.8C8.3,2.8,2.8,8.3,2.8,15c0,5,3,9.3,7.3,11.2c0-0.9,0-1.9,0.2-2.8c0.2-1,1.6-6.7,1.6-6.7s-0.4-0.8-0.4-1.9
		c0-1.8,1.1-3.2,2.4-3.2c1.1,0,1.6,0.8,1.6,1.8c0,1.1-0.7,2.8-1.1,4.3c-0.3,1.3,0.6,2.4,1.9,2.4c2.3,0,3.9-3,3.9-6.5
		c0-2.7-1.8-4.7-5.1-4.7c-3.7,0-6,2.8-6,5.8c0,1.1,0.3,1.8,0.8,2.4c0.2,0.3,0.3,0.4,0.2,0.7c-0.1,0.2-0.2,0.8-0.2,1
		c-0.1,0.3-0.3,0.4-0.6,0.3c-1.7-0.7-2.5-2.6-2.5-4.7c0-3.5,2.9-7.6,8.7-7.6c4.7,0,7.7,3.4,7.7,7c0,4.8-2.7,8.4-6.6,8.4
		c-1.3,0-2.6-0.7-3-1.5c0,0-0.7,2.8-0.9,3.4C12.5,25,12,26,11.5,26.7c1.1,0.3,2.3,0.5,3.5,0.5c6.7,0,12.2-5.5,12.2-12.2
		S21.7,2.8,15,2.8"/>
</g>
</svg>
